<svg width="232" height="230" viewBox="0 0 232 230" fill="none" xmlns="http://www.w3.org/2000/svg">
<path d="M96.9794 7.59433C108.039 -1.47295 123.961 -1.47295 135.021 7.59432L135.742 8.18593C142.031 13.3418 150.143 15.7239 158.221 14.7864L159.148 14.6788C173.354 13.0301 186.749 21.6383 191.15 35.2454L191.437 36.1332C193.94 43.8705 199.477 50.2603 206.78 53.8389L207.617 54.2495C220.46 60.5429 227.074 75.0262 223.42 88.8529L223.182 89.7551C221.104 97.6174 222.308 105.986 226.516 112.945L226.999 113.743C234.4 125.98 232.134 141.741 221.585 151.397L220.897 152.027C214.898 157.518 211.386 165.209 211.165 173.338L211.139 174.271C210.749 188.567 200.322 200.6 186.227 203.02L185.308 203.178C177.293 204.554 170.18 209.126 165.599 215.844L165.073 216.615C157.016 228.431 141.739 232.917 128.573 227.333L127.714 226.968C120.227 223.793 111.773 223.793 104.286 226.968L103.427 227.333C90.2609 232.917 74.9837 228.431 66.9268 216.615L66.4011 215.844C61.8197 209.126 54.707 204.554 46.6922 203.178L45.7725 203.02C31.6775 200.6 21.2507 188.567 20.8609 174.271L20.8355 173.338C20.6138 165.209 17.1015 157.518 11.1031 152.027L10.4148 151.397C-0.134086 141.741 -2.40006 125.98 5.001 113.743L5.4839 112.945C9.69235 105.986 10.8956 97.6174 8.81806 89.7551L8.57966 88.8529C4.92604 75.0262 11.5404 60.5429 24.3825 54.2495L25.2204 53.8389C32.5228 50.2603 38.0596 43.8706 40.5625 36.1332L40.8497 35.2454C45.2514 21.6383 58.646 13.0301 72.8519 14.6788L73.7788 14.7864C81.8567 15.7239 89.9691 13.3418 96.2579 8.18594L96.9794 7.59433Z" fill="#F2E1E1"/>
</svg>
