<svg width="21" height="22" viewBox="0 0 21 22" fill="none" xmlns="http://www.w3.org/2000/svg">
<path d="M1.08093 5H3.08093H19.0809" stroke="black" stroke-width="2" stroke-linecap="round" stroke-linejoin="round"/>
<path d="M6.08093 5V3C6.08093 2.46957 6.29165 1.96086 6.66672 1.58579C7.04179 1.21071 7.5505 1 8.08093 1H12.0809C12.6114 1 13.1201 1.21071 13.4951 1.58579C13.8702 1.96086 14.0809 2.46957 14.0809 3V5M17.0809 5V19C17.0809 19.5304 16.8702 20.0391 16.4951 20.4142C16.1201 20.7893 15.6114 21 15.0809 21H5.08093C4.5505 21 4.04179 20.7893 3.66672 20.4142C3.29165 20.0391 3.08093 19.5304 3.08093 19V5H17.0809Z" stroke="black" stroke-width="2" stroke-linecap="round" stroke-linejoin="round"/>
</svg>
