<svg width="210" height="204" viewBox="0 0 210 204" fill="none" xmlns="http://www.w3.org/2000/svg">
<path d="M75.4538 12.2455C91.8204 -3.95448 118.18 -3.95449 134.546 12.2455L153.256 30.7647C156.286 33.7638 159.755 36.2841 163.543 38.239L186.938 50.3101C207.402 60.8696 215.548 85.9387 205.198 106.51L193.367 130.027C191.451 133.835 190.126 137.913 189.438 142.121L185.186 168.1C181.468 190.826 160.143 206.32 137.38 202.834L111.358 198.849C107.144 198.203 102.856 198.203 98.642 198.849L72.6203 202.834C49.8573 206.32 28.5323 190.826 24.8135 168.1L20.5625 142.121C19.874 137.913 18.549 133.835 16.633 130.027L4.80181 106.51C-5.54777 85.9387 2.59767 60.8696 23.0624 50.3101L46.4567 38.239C50.2454 36.2841 53.7143 33.7638 56.7442 30.7647L75.4538 12.2455Z" fill="#F2E1E1"/>
</svg>
