<svg width="24" height="25" viewBox="0 0 24 25" fill="none" xmlns="http://www.w3.org/2000/svg">
<path d="M3.9 12.5C3.9 10.79 5.29 9.4 7 9.4H11V7.5H7C5.67392 7.5 4.40215 8.02678 3.46447 8.96447C2.52678 9.90215 2 11.1739 2 12.5C2 13.8261 2.52678 15.0979 3.46447 16.0355C4.40215 16.9732 5.67392 17.5 7 17.5H11V15.6H7C5.29 15.6 3.9 14.21 3.9 12.5ZM8 13.5H16V11.5H8V13.5ZM17 7.5H13V9.4H17C18.71 9.4 20.1 10.79 20.1 12.5C20.1 14.21 18.71 15.6 17 15.6H13V17.5H17C18.3261 17.5 19.5979 16.9732 20.5355 16.0355C21.4732 15.0979 22 13.8261 22 12.5C22 11.1739 21.4732 9.90215 20.5355 8.96447C19.5979 8.02678 18.3261 7.5 17 7.5V7.5Z" fill="black"/>
</svg>
