<svg width="74" height="72" viewBox="0 0 74 72" fill="none" xmlns="http://www.w3.org/2000/svg">
<rect x="42" y="3" width="32" height="31" rx="15.5" fill="#FFDADA"/>
<path d="M3 41H22C29.1797 41 35 46.8203 35 54V72H17C9.26801 72 3 65.732 3 58V41Z" fill="#FFABDE"/>
<rect x="42" y="41" width="32" height="31" rx="7" fill="#F8FFAB"/>
<path d="M1.41421 16.5858L16.5858 1.41421C17.3668 0.633165 18.6332 0.633163 19.4142 1.41421L34.5858 16.5858C35.3668 17.3668 35.3668 18.6332 34.5858 19.4142L19.4142 34.5858C18.6332 35.3668 17.3668 35.3668 16.5858 34.5858L1.41421 19.4142C0.633165 18.6332 0.633163 17.3668 1.41421 16.5858Z" fill="#FEB3B3" stroke="#FEB3B3"/>
</svg>
