<svg width="29" height="29" viewBox="0 0 29 29" fill="none" xmlns="http://www.w3.org/2000/svg">
<path d="M27 15.6261C26.7811 17.9953 25.8919 20.2532 24.4366 22.1355C22.9812 24.0178 21.0199 25.4467 18.7822 26.255C16.5444 27.0633 14.1227 27.2176 11.8004 26.6997C9.47813 26.1819 7.35137 25.0135 5.66895 23.3311C3.98654 21.6486 2.81806 19.5219 2.30025 17.1996C1.78244 14.8773 1.93672 12.4556 2.74502 10.2178C3.55332 7.98006 4.98222 6.01876 6.86453 4.56343C8.74683 3.1081 11.0047 2.21894 13.3739 2C11.9868 3.87657 11.3193 6.18868 11.4928 8.51579C11.6664 10.8429 12.6694 13.0304 14.3195 14.6805C15.9696 16.3306 18.1571 17.3336 20.4842 17.5072C22.8113 17.6807 25.1234 17.0132 27 15.6261Z" stroke="black" stroke-width="3" stroke-linecap="round" stroke-linejoin="round"/>
</svg>
