<svg width="52" height="52" viewBox="0 0 52 52" fill="none" xmlns="http://www.w3.org/2000/svg">
<path d="M49.8334 17.3333C49.8334 19.7167 47.8834 21.6667 45.5 21.6667C45.11 21.6667 44.7417 21.6233 44.395 21.515L36.6817 29.2067C36.79 29.5533 36.8334 29.9433 36.8334 30.3333C36.8334 32.7167 34.8834 34.6667 32.5 34.6667C30.1167 34.6667 28.1667 32.7167 28.1667 30.3333C28.1667 29.9433 28.21 29.5533 28.3184 29.2067L22.7934 23.6817C22.4467 23.79 22.0567 23.8333 21.6667 23.8333C21.2767 23.8333 20.8867 23.79 20.54 23.6817L10.6817 33.5617C10.79 33.9083 10.8334 34.2767 10.8334 34.6667C10.8334 37.05 8.88335 39 6.50002 39C4.11669 39 2.16669 37.05 2.16669 34.6667C2.16669 32.2833 4.11669 30.3333 6.50002 30.3333C6.89002 30.3333 7.25835 30.3767 7.60502 30.485L17.485 20.6267C17.3767 20.28 17.3334 19.89 17.3334 19.5C17.3334 17.1167 19.2834 15.1667 21.6667 15.1667C24.05 15.1667 26 17.1167 26 19.5C26 19.89 25.9567 20.28 25.8484 20.6267L31.3734 26.1517C31.72 26.0433 32.11 26 32.5 26C32.89 26 33.28 26.0433 33.6267 26.1517L41.3184 18.4383C41.21 18.0917 41.1667 17.7233 41.1667 17.3333C41.1667 14.95 43.1167 13 45.5 13C47.8834 13 49.8334 14.95 49.8334 17.3333Z" fill="black"/>
</svg>
