<svg width="25" height="25" viewBox="0 0 25 25" fill="none" xmlns="http://www.w3.org/2000/svg">
<path d="M21.3439 11.4898C21.3439 16.9898 17.5439 22.1898 12.3439 23.4898C7.14387 22.1898 3.34387 16.9898 3.34387 11.4898V5.48982L12.3439 1.48982L21.3439 5.48982V11.4898ZM12.3439 21.4898C16.1439 20.4898 19.3439 15.9898 19.3439 11.6898V6.78982L12.3439 3.68982L5.34387 6.78982V11.6898C5.34387 15.9898 8.54387 20.4898 12.3439 21.4898ZM15.1439 11.4898H10.8439V8.98982C10.8439 8.18982 11.5439 7.68982 12.3439 7.68982C13.1439 7.68982 13.8439 8.18982 13.8439 8.98982V9.48982H15.1439V8.98982C15.1439 7.58982 13.7439 6.48982 12.3439 6.48982C10.9439 6.48982 9.54387 7.58982 9.54387 8.98982V11.4898C8.94387 11.4898 8.34387 12.0898 8.34387 12.6898V16.1898C8.34387 16.8898 8.94387 17.4898 9.54387 17.4898H15.0439C15.7439 17.4898 16.3439 16.8898 16.3439 16.2898V12.7898C16.3439 12.0898 15.7439 11.4898 15.1439 11.4898Z" fill="black"/>
</svg>
