<svg width="25" height="25" viewBox="0 0 25 25" fill="none" xmlns="http://www.w3.org/2000/svg">
<path d="M12.3438 21.4898L15.9438 16.6898C14.9438 15.9398 13.6938 15.4898 12.3438 15.4898C10.9938 15.4898 9.74382 15.9398 8.74382 16.6898L12.3438 21.4898ZM12.3438 3.48982C8.29382 3.48982 4.55382 4.82982 1.54382 7.08982L3.34382 9.48982C5.84382 7.60982 8.96382 6.48982 12.3438 6.48982C15.7238 6.48982 18.8438 7.60982 21.3438 9.48982L23.1438 7.08982C20.1338 4.82982 16.3938 3.48982 12.3438 3.48982ZM12.3438 9.48982C9.64382 9.48982 7.15382 10.3798 5.14382 11.8898L6.94382 14.2898C8.44382 13.1598 10.3138 12.4898 12.3438 12.4898C14.3738 12.4898 16.2438 13.1598 17.7438 14.2898L19.5438 11.8898C17.5338 10.3798 15.0438 9.48982 12.3438 9.48982Z" fill="#27CC69"/>
</svg>
